<svg width="24" height="15" viewBox="0 0 24 15" fill="none" xmlns="http://www.w3.org/2000/svg">
<path fill-rule="evenodd" clip-rule="evenodd" d="M12.2417 0.43661C12.8486 -0.100336 13.8941 -0.148704 14.5769 0.328583L23.4449 6.52778C23.7979 6.77463 24 7.12845 24 7.50001C24 7.87161 23.7979 8.22533 23.4449 8.47229L14.5769 14.6714C13.8941 15.1487 12.8486 15.1004 12.2417 14.5634C11.6348 14.0265 11.6963 13.2043 12.379 12.727L17.9954 8.80079H1.65405C0.740537 8.80079 0 8.21838 0 7.50001C0 6.78159 0.740537 6.1992 1.65405 6.1992H17.9954L12.379 2.27306C11.6963 1.79578 11.6348 0.97357 12.2417 0.43661Z" fill="#EFCE8C"/>
</svg>
