<svg width="30" height="26" viewBox="0 0 30 26" fill="none" xmlns="http://www.w3.org/2000/svg">
<path fill-rule="evenodd" clip-rule="evenodd" d="M14.6978 0.741172C13.9392 -0.170327 12.6324 -0.252435 11.7789 0.557789L0.693943 11.0813C0.252557 11.5003 0 12.101 0 12.7317C0 13.3625 0.252557 13.963 0.693943 14.3822L11.7789 24.9056C12.6324 25.7158 13.9392 25.6338 14.6978 24.7222C15.4564 23.8109 15.3795 22.415 14.5261 21.6048L7.50568 14.9399H27.9324C29.0743 14.9399 30 13.9512 30 12.7317C30 11.5122 29.0743 10.5235 27.9324 10.5235H7.50568L14.5261 3.85866C15.3795 3.04844 15.4564 1.65269 14.6978 0.741172Z" fill="black"/>
</svg>
