<svg width="49" height="43" viewBox="0 0 49 43" fill="none" xmlns="http://www.w3.org/2000/svg">
<path d="M31.9768 21.5H39.4536V27.4814C39.4536 30.7806 36.7713 33.4629 33.4722 33.4629H32.7245C32.4298 33.4622 32.1378 33.5197 31.8653 33.6322C31.5928 33.7447 31.3453 33.9099 31.1369 34.1183C30.9284 34.3267 30.7632 34.5743 30.6508 34.8468C30.5383 35.1192 30.4807 35.4112 30.4814 35.706V40.1921C30.4807 40.4868 30.5383 40.7788 30.6508 41.0513C30.7632 41.3238 30.9284 41.5713 31.1369 41.7797C31.3453 41.9882 31.5928 42.1534 31.8653 42.2659C32.1378 42.3783 32.4298 42.4359 32.7245 42.4352H33.4722C41.734 42.4352 48.4258 35.7434 48.4258 27.4815V5.05103C48.4258 2.57432 46.4164 0.564941 43.9397 0.564941H31.9768C29.5001 0.564941 27.4907 2.57432 27.4907 5.05103V17.0139C27.4907 19.4906 29.5001 21.5 31.9768 21.5ZM5.0603 21.5H12.5371V27.4814C12.5371 30.7806 9.85484 33.4629 6.55566 33.4629H5.80803C5.51327 33.4622 5.22127 33.5197 4.9488 33.6322C4.67634 33.7447 4.42878 33.9099 4.22035 34.1183C4.01192 34.3267 3.84672 34.5743 3.73425 34.8468C3.62177 35.1192 3.56423 35.4112 3.56494 35.706V40.1921C3.56423 40.4868 3.62177 40.7788 3.73425 41.0513C3.84672 41.3238 4.01192 41.5713 4.22035 41.7797C4.42878 41.9882 4.67634 42.1534 4.9488 42.2659C5.22127 42.3783 5.51327 42.4359 5.80803 42.4352H6.55566C14.8175 42.4352 21.5093 35.7434 21.5093 27.4815V5.05103C21.5093 2.57432 19.4999 0.564941 17.0232 0.564941H5.0603C2.5836 0.564941 0.574219 2.57432 0.574219 5.05103V17.0139C0.574219 19.4906 2.5836 21.5 5.0603 21.5Z" fill="black" fill-opacity="0.2"/>
</svg>
