<svg width="34" height="34" viewBox="0 0 34 34" fill="none" xmlns="http://www.w3.org/2000/svg">
<path d="M17.0001 0C7.62643 0 0.000109704 7.62635 0.000109704 17C0.000109704 19.927 0.756238 22.8051 2.19015 25.3448L0.0274574 33.0613C-0.0434989 33.3148 0.0252401 33.5868 0.208544 33.7753C0.349717 33.9209 0.541891 34 0.739238 34C0.798368 34 0.858237 33.9926 0.916628 33.9786L8.97017 31.9837C11.4292 33.3037 14.1988 34 17.0001 34C26.3737 34 34 26.3737 34 17C34 7.62635 26.3737 0 17.0001 0ZM25.5518 22.9988C25.1881 24.0055 23.4438 24.9242 22.6056 25.0477C21.8532 25.1578 20.9012 25.2051 19.856 24.8769C19.2226 24.6773 18.4096 24.4127 17.3681 23.9685C12.9903 22.1015 10.1313 17.7487 9.91256 17.4612C9.69451 17.1737 8.13052 15.1248 8.13052 13.0043C8.13052 10.8837 9.25769 9.84078 9.6583 9.40913C10.0589 8.97748 10.5312 8.86957 10.8224 8.86957C11.1136 8.86957 11.4041 8.87326 11.6591 8.88509C11.9274 8.89839 12.2874 8.78383 12.6414 9.62496C13.0051 10.4883 13.878 12.6088 13.9859 12.8254C14.0953 13.0412 14.1677 13.2933 14.0228 13.5808C13.878 13.8683 13.8055 14.0479 13.5868 14.3C13.368 14.552 13.1285 14.8617 12.9319 15.0553C12.7131 15.2704 12.4862 15.5033 12.7405 15.9349C12.9947 16.3666 13.8706 17.7776 15.1685 18.9203C16.8352 20.3882 18.2418 20.8435 18.6779 21.0593C19.114 21.2751 19.369 21.2389 19.6232 20.9514C19.8775 20.6631 20.7142 19.6927 21.0047 19.2617C21.2951 18.8308 21.5863 18.9018 21.987 19.0459C22.3876 19.1893 24.5332 20.2315 24.9693 20.4473C25.4054 20.6631 25.6966 20.771 25.806 20.9507C25.9154 21.1295 25.9154 21.9928 25.5518 22.9988Z" fill="#ECB853"/>
</svg>
